<svg fill="none" xmlns="http://www.w3.org/2000/svg" viewBox="0 0 84 64">
  <path d="M46.823 6.43c.786-1.165 1.555-2.339 2.36-3.49.446-.638.91-1.276 1.428-1.853.61-.68 1.46-.999 2.328-1.003C58.533.028 64.122.005 69.716 0c3.265-.004 6.53.028 9.795.056 1.601.014 2.893.66 3.775 2.043.21.323.31.721.46 1.082.081.258.159.517.24.776L84 42.867c0 5.635 0 11.265-.01 16.899 0 1.364-.468 2.58-1.568 3.379-.564.411-1.31.628-2.006.767-.659.13-1.364.037-2.05.037-21.056.019-42.112.042-63.168.051-3.747 0-7.499-.028-11.246-.06-.9-.01-1.646-.319-2.365-.948C1.005 62.484.5 61.98.264 61.254c-.128-.383-.155-.808-.196-1.215-.032-.31-.009-.624-.009-.939C.036 50.341 0 41.577 0 32.818c0-5.528.055-11.051.082-16.58.004-1.007 0-2.015 0-3.023.086-.092.214-.17.26-.281a3.774 3.774 0 011.49-1.812c.988-.638 2.065-.666 3.17-.624.273 0 .546.009.824.004 12.1-.032 24.202-.07 36.3-.078.922 0 1.695-.25 2.387-.828.222-.185.49-.337.645-.568.573-.85 1.11-1.729 1.665-2.598z" fill="#F4D345"/>
  <path d="M46.822 6.43c-.55.869-1.087 1.747-1.664 2.597-.155.231-.423.388-.646.569-.696.578-1.47.827-2.388.827-12.101.01-24.202.051-36.3.079-.272 0-.545 0-.822-.005 0-.522-.014-1.045-.005-1.562.018-1.664 1.064-2.709 2.715-2.709H25.83c3.147 0 6.294 0 9.446-.01.181 0 .359-.124.54-.193.333.388.77.314 1.21.31 3.02-.014 6.044-.01 9.064-.005.245 0 .491.065.732.102z" fill="#E8E3B9"/>
  <path d="M35.818 6.023c-.182.069-.359.194-.54.194-3.148.014-6.295.009-9.446.009H7.714c-1.651 0-2.697 1.045-2.715 2.709-.005.522 0 1.04.004 1.562-1.105-.042-2.183-.014-3.17.624-.7.448-1.177 1.044-1.491 1.812-.046.11-.168.19-.26.282 0-2.418-.036-4.83 0-7.248C.097 5.21.438 4.53.93 3.92c1.05-1.312 2.419-1.77 4.042-1.77 8.49.019 16.981.01 25.472.005 1.573 0 2.806.628 3.756 1.9.505.679 1.078 1.308 1.62 1.96v.009z" fill="#EFAB49"/>
</svg>
