<svg fill="none" xmlns="http://www.w3.org/2000/svg" viewBox="0 0 8 8">
  <g clip-path="url(#mPts9P8PZERra)">
    <path d="M5.034.435a1.445 1.445 0 00-2.067 0l-.312.319-.444-.005A1.445 1.445 0 00.749 2.21l.004.445-.318.31a1.445 1.445 0 000 2.067l.319.311-.005.446A1.445 1.445 0 002.21 7.252l.445-.005.31.317a1.445 1.445 0 002.067 0l.311-.318.446.005A1.445 1.445 0 007.252 5.79l-.005-.444.317-.311a1.445 1.445 0 000-2.067l-.318-.312.005-.444A1.445 1.445 0 005.79.749l-.444.004-.311-.318zm.143 2.992l-1.5 1.5a.25.25 0 01-.354 0l-.75-.75a.25.25 0 01.354-.354l.573.573 1.323-1.323a.25.25 0 11.354.354z" fill="#2563EB"/>
  </g>
  <defs>
    <clipPath id="mPts9P8PZERra">
      <path fill="#fff" d="M0 0h8v8H0z"/>
    </clipPath>
  </defs>
</svg>
